<svg width="93" height="12" viewBox="0 0 93 12" fill="none" xmlns="http://www.w3.org/2000/svg">
<path d="M0.512 11V9.704L1.04 9.656C1.34933 9.624 1.504 9.47467 1.504 9.208V1.768L0.592 1.72V0.36H4.96C6.19733 0.36 7.14667 0.589333 7.808 1.048C8.46933 1.50667 8.8 2.25867 8.8 3.304C8.8 4.02933 8.608 4.62667 8.224 5.096C7.85067 5.56533 7.40267 5.90667 6.88 6.12C7.264 6.25867 7.568 6.584 7.792 7.096L8.944 9.608L9.856 9.64V11H5.904V9.704L6.368 9.656C6.61333 9.624 6.736 9.528 6.736 9.368C6.736 9.304 6.71467 9.22933 6.672 9.144L5.92 7.544C5.80267 7.27733 5.66933 7.09067 5.52 6.984C5.38133 6.86667 5.17867 6.808 4.912 6.808H3.456V9.592L4.496 9.64V11H0.512ZM3.456 5.288H4.848C6.16 5.288 6.816 4.70133 6.816 3.528C6.816 2.856 6.64 2.41867 6.288 2.216C5.94667 2.01333 5.392 1.912 4.624 1.912H3.456V5.288ZM14.8456 1.522C15.9563 1.522 16.885 1.914 17.6316 2.698C18.3783 3.482 18.7516 4.68133 18.7516 6.296C18.7516 7.90133 18.3783 9.11933 17.6316 9.95C16.8943 10.7713 15.891 11.182 14.6216 11.182C13.3616 11.182 12.3723 10.7713 11.6536 9.95C10.935 9.12867 10.5756 7.934 10.5756 6.366C10.5756 5.50733 10.7016 4.756 10.9536 4.112C11.2056 3.45867 11.537 2.95467 11.9476 2.6C12.7783 1.88133 13.7443 1.522 14.8456 1.522ZM12.3256 6.296C12.3256 8.61067 13.1283 9.768 14.7336 9.768C15.5923 9.768 16.1943 9.41333 16.5396 8.704C16.857 8.07867 17.0156 7.31333 17.0156 6.408C17.0156 5.596 16.8756 4.84933 16.5956 4.168C16.437 3.79467 16.1943 3.50067 15.8676 3.286C15.5503 3.07133 15.135 2.964 14.6216 2.964C14.1083 2.964 13.665 3.132 13.2916 3.468C12.9276 3.804 12.6756 4.21 12.5356 4.686C12.3956 5.162 12.3256 5.69867 12.3256 6.296ZM21.86 9.432V7.444L19.48 2.922L18.822 2.88V1.69H22.238V2.824L21.818 2.866C21.6686 2.87533 21.5706 2.93133 21.524 3.034C21.4866 3.13667 21.5053 3.26267 21.58 3.412L22.77 5.848H22.826L24.352 2.936L23.652 2.88V1.69H26.662V2.824L26.242 2.866C26.0646 2.88467 25.906 3.02467 25.766 3.286L23.568 7.444V9.768L24.66 9.81V11H20.712V9.866L21.454 9.824C21.7246 9.80533 21.86 9.67467 21.86 9.432ZM26.5672 9.432L28.8212 2.908L27.9392 2.824V1.69H31.1452L34.0012 9.768H34.0152L34.8132 9.81V11H31.2012V9.866L31.7332 9.824C31.8919 9.80533 31.9992 9.768 32.0552 9.712C32.1112 9.656 32.1159 9.55333 32.0692 9.404L31.7752 8.536H28.4992L28.0792 9.768L28.9192 9.81V11H25.6852V9.866L26.1472 9.824C26.3432 9.80533 26.4832 9.67467 26.5672 9.432ZM30.1372 3.258L28.8352 7.248H31.4392L30.1792 3.258H30.1372ZM41.9828 11H35.3328V9.866L35.7948 9.824C36.0654 9.796 36.2008 9.66533 36.2008 9.432V2.922L35.4028 2.88V1.69H38.7768V2.824L38.3148 2.866C38.0441 2.894 37.9088 3.04333 37.9088 3.314V9.558H40.2328C40.3634 9.558 40.4474 9.52533 40.4848 9.46C40.5314 9.38533 40.5548 9.26867 40.5548 9.11V8.13L41.9828 8.228V11ZM46.1194 11V9.704L46.6474 9.656C46.9568 9.624 47.1114 9.47467 47.1114 9.208V1.768L46.1994 1.72V0.36H50.5674C51.8048 0.36 52.7541 0.589333 53.4154 1.048C54.0768 1.50667 54.4074 2.25867 54.4074 3.304C54.4074 4.02933 54.2154 4.62667 53.8314 5.096C53.4581 5.56533 53.0101 5.90667 52.4874 6.12C52.8714 6.25867 53.1754 6.584 53.3994 7.096L54.5514 9.608L55.4634 9.64V11H51.5114V9.704L51.9754 9.656C52.2208 9.624 52.3434 9.528 52.3434 9.368C52.3434 9.304 52.3221 9.22933 52.2794 9.144L51.5274 7.544C51.4101 7.27733 51.2768 7.09067 51.1274 6.984C50.9888 6.86667 50.7861 6.808 50.5194 6.808H49.0634V9.592L50.1034 9.64V11H46.1194ZM49.0634 5.288H50.4554C51.7674 5.288 52.4234 4.70133 52.4234 3.528C52.4234 2.856 52.2474 2.41867 51.8954 2.216C51.5541 2.01333 50.9994 1.912 50.2314 1.912H49.0634V5.288ZM56.939 9.362V2.922L56.141 2.88V1.69H59.529V2.824L59.067 2.866C58.7964 2.894 58.661 3.04333 58.661 3.314V9.768L59.459 9.81V11H56.071V9.866L56.533 9.824C56.673 9.80533 56.7757 9.768 56.841 9.712C56.9064 9.64667 56.939 9.53 56.939 9.362ZM60.392 11V9.866L60.854 9.824C61.1247 9.796 61.26 9.66533 61.26 9.432V2.922L60.462 2.88V1.69H64.298C65.67 1.69 66.7387 2.054 67.504 2.782C68.2787 3.51 68.666 4.588 68.666 6.016C68.666 6.90267 68.5493 7.67733 68.316 8.34C68.0827 8.99333 67.7653 9.50667 67.364 9.88C66.5613 10.6267 65.5627 11 64.368 11H60.392ZM62.968 3.048V9.656H64.396C65.1987 9.656 65.824 9.36667 66.272 8.788C66.72 8.20933 66.944 7.36933 66.944 6.268C66.944 4.12133 66.034 3.048 64.214 3.048H62.968ZM76.3526 11H69.7026V9.866L70.1646 9.824C70.4352 9.796 70.5706 9.66533 70.5706 9.432V2.922L69.7726 2.88V1.69H76.1846V4.014L74.7566 4.112V3.552C74.7566 3.39333 74.7332 3.28133 74.6866 3.216C74.6399 3.15067 74.5279 3.118 74.3506 3.118H72.2786V5.512H75.5126V6.94H72.2786V9.558H74.5326C74.7006 9.558 74.8079 9.52533 74.8546 9.46C74.9012 9.38533 74.9246 9.26867 74.9246 9.11V8.41L76.3526 8.508V11ZM77.3582 11V9.866L77.8202 9.824C78.0908 9.796 78.2262 9.66533 78.2262 9.432V2.922L77.4282 2.88V1.69H81.2502C82.3328 1.69 83.1635 1.89067 83.7422 2.292C84.3208 2.69333 84.6102 3.35133 84.6102 4.266C84.6102 4.90067 84.4422 5.42333 84.1062 5.834C83.7795 6.24467 83.3875 6.54333 82.9302 6.73C83.2662 6.85133 83.5322 7.136 83.7282 7.584L84.7362 9.782L85.5342 9.81V11H82.0762V9.866L82.4822 9.824C82.6968 9.796 82.8042 9.712 82.8042 9.572C82.8042 9.516 82.7855 9.45067 82.7482 9.376L82.0902 7.976C81.9875 7.74267 81.8708 7.57933 81.7402 7.486C81.6188 7.38333 81.4415 7.332 81.2082 7.332H79.9342V9.768L80.8442 9.81V11H77.3582ZM79.9342 6.002H81.1522C82.3002 6.002 82.8742 5.48867 82.8742 4.462C82.8742 3.874 82.7202 3.49133 82.4122 3.314C82.1135 3.13667 81.6282 3.048 80.9562 3.048H79.9342V6.002ZM89.0478 9.74C90.1678 9.74 90.7278 9.292 90.7278 8.396C90.7278 7.92933 90.4805 7.584 89.9858 7.36C89.7245 7.22933 89.3838 7.108 88.9638 6.996C88.5532 6.884 88.2078 6.772 87.9278 6.66C87.6572 6.53867 87.3818 6.37533 87.1018 6.17C86.5512 5.75933 86.2758 5.12933 86.2758 4.28C86.2758 3.42133 86.5698 2.74933 87.1578 2.264C87.7552 1.76933 88.5298 1.522 89.4818 1.522C90.4432 1.522 91.3345 1.71333 92.1558 2.096V4.196L90.7278 4.294V3.482C90.7278 3.342 90.7092 3.23933 90.6718 3.174C90.5692 2.99667 90.2378 2.908 89.6778 2.908C89.1272 2.908 88.7165 3.006 88.4458 3.202C88.1845 3.398 88.0538 3.70133 88.0538 4.112C88.0538 4.41067 88.1658 4.672 88.3898 4.896C88.5392 5.04533 88.7585 5.17133 89.0478 5.274C89.3465 5.36733 89.6592 5.46533 89.9858 5.568C90.3218 5.67067 90.6158 5.78267 90.8678 5.904C91.1292 6.02533 91.3998 6.19333 91.6798 6.408C92.2492 6.828 92.5338 7.47667 92.5338 8.354C92.5338 9.23133 92.2165 9.922 91.5818 10.426C90.9565 10.93 90.1258 11.182 89.0898 11.182C88.0632 11.182 87.1392 10.9907 86.3178 10.608V8.396L87.7458 8.298V9.152C87.7458 9.292 87.7645 9.39467 87.8018 9.46C87.8392 9.52533 87.9512 9.59067 88.1378 9.656C88.3338 9.712 88.6372 9.74 89.0478 9.74Z" fill="#FF0000"/>
</svg>
